<svg id="Layer_1" data-name="Layer 1" xmlns="http://www.w3.org/2000/svg" viewBox="0 0 1479.46 1420.79"><defs><style>.cls-1{fill:#037519;}.cls-2{font-size:62.44px;fill:#fff;font-family:ArialMT, Arial;}</style></defs><rect width="1479.46" height="1420.79"/><path class="cls-1" d="M0,640v640H15V730H58V840H278v165h12V773l-27.2-.2-27.3-.3-.3-76.3L235,620h98v98H290V663H278v67h55v275h12V608H168v12h55v98H168v12h55v55h55v43l-103.7-.2-103.8-.3-.3-54.7L70,718l-27.3-.2-27.2-.3-.3-131.3L15,455H553v98H510V498H498V840H620V718H553v67h12V730h43l-.2,48.7-.3,48.8-48.7.3L510,828V565h55V443H290V345H443v43H333v12H608V565H730V388H718l-.2,82.2-.3,82.3-48.7.3L620,553V388H455V333H400V278H388v55H290V278H278v55H223v67h12V345h43v98H180V388H168v55H15l.2-213.8.3-213.7,76.2-.3L168,15V58H58V345H70l.2-137.3.3-137.2,54.8-.3L180,70V15H443V125H565V113H455V15h43V70h12V15l21.3.2,21.2.3.3,27.2L553,70h12V15l21.3.2,21.2.3.3,76.2L608,168H400V58H223V70H388v98H125V125H345V113H113V388H58v12h67V345h55V278H168v55H125V235h98v55h12V235h98v55h12V235h98v55h55v55H663V510h12V345H785V333H730V290h98V400l27.3.2,27.2.3v152l-27.2.3L828,553v12h67V223H663v55H553v12H675V235l103.8.2,103.7.3v152l-21.2.3L840,388V278H718v55H510V278H455V223H125V180H498v55h12V180h98v43H553v12h67V0H0Z" transform="translate(111.53 80.25)"/><path class="cls-1" d="M663,7.5V15l54.8.2,54.7.3.3,54.7L773,125h12V15l48.8.2,48.7.3.3,48.7L883,113H840V58H828v67h67V15h372V223l-82,.2-82,.3v506l33.5.3,33.5.2V718h-55V620h110V608h-55V400h55V388h-55V290h55V278l-33.5.2-33.5.3-.3,164.5-.2,164.5-21.2.3-21.3.2V235h152v98h-55v12h55v98h-55V565h13V455h42V663H1157.5l.1,5.7.2,5.8,27.1.3,27.1.2v98H1060V222.9l-6,.3-6,.3-.3,82-.2,82-21.2.3-21.3.2V180h220V58l-61.1.2-61.1.3-.2,5.7-.1,5.8,27.5.2,27.5.3v42l-48.7.3-48.8.2V58H938V168H730V58H663V70l27.3.2,27.2.3.3,48.7L718,168H675V113H663v67l137.3.2,137.2.3.3,192.2L938,565h67V443H993l-.2,54.7-.3,54.8-21.2.3L950,553V70l48.8.2,48.7.3V125H1170V70h42v98H1005V113H993V400l27.3.2,27.2.3v262l-21.2.3-21.3.2V608H785V510h55V443H785V388H773v67h55v43H773l-.2,54.7-.3,54.8-109.7.3L553,608v67H663l-.2,103.7-.3,103.8-103.7.3L455,883V498H278v12H443l-.2,241.2-.3,241.3h-42l-.3-219.7L400,553H113V663l-21.2-.2-21.3-.3-.3-76.3L70,510H235V498H58V675h55V785h67V773l-27.2-.2-27.3-.3-.3-48.8L125,675h55V663H125V565H388l-.2,241.2-.3,241.3h-152l-.3-82.3L235,883H58v287H70V895H223l-.2,48.7-.3,48.8-27.2.3L168,993v122h67v-12l-26-.1c-14.3-.1-26.6-.2-27.2-.3-1-.1-1.4-10.7-1.6-48.9L180,1005h43v55h55l-.2,48.7-.3,48.8h-152l-.3-103.8L125,950h55V938H113v232H388v55h12v-55h98v42H443v13h67v-67l-108.5-.1c-59.7-.1-109.1-.2-109.7-.3-1-.1-1.4-10.7-1.6-48.9L290,1060H565v-12l-81-.1c-44.5-.1-81.6-.2-82.2-.3-1-.1-1.4-5.2-1.6-21.3L400,1005H565V938H498v12h55l-.2,21.3-.3,21.2-48.7.3L455,993V895H608l-.2,103.7c-.2,82.2-.6,103.8-1.5,103.9-.7.1-62.5.2-137.3.3l-136,.1v12H553v110h12V1115H675v-67H663l-.2,27.3-.3,27.2h-42l-.3-103.8L620,895h43v110h12V785H828v55h67V828H840V773H675V675H828l-.2,21.2-.3,21.3-54.7.3L718,718v12H883v55h55l-.2,48.7-.3,48.8-76.2.3L785,883V828H773V950h12V895H950V840l48.8.2,48.7.3.2,27,.2,27,6,.3,6.1.3V840l21.3.2,21.2.3v97l-48.7.3-48.8.2V883H993l-.2,27.2-.3,27.3-82.2.3L828,938l-.2,27.3-.3,27.2-48.7.3L730,993V828H718l-.2,164.7c-.2,131-.6,164.8-1.5,164.9-.7.1-25.4.2-54.8.3l-53.5.1v67h452V1048H993v12h55.1l-.3,48.7-.3,48.8h-262l-.3-21.3L785,1115H895v-12l-53.5-.1c-29.4-.1-54.1-.2-54.7-.3-1-.1-1.4-5.2-1.6-21.4L785,1060H895v-12H773v122h274.9v42H620v-42H730V1005H840V950h275V828H950V773H895V718H840V663H565V620H993v55l27.3.2,27.2.3v97l-21.2.3-21.3.2V718H950V663H883v12h55v55h55v55l82.3.2,82.2.3v207l-137.2.3L883,993v12h55v110h67v-12H950v-98h153v219.5l61,.3,61.1.2-.3-6.2-.3-6.3-27.2-.3-27.3-.2v-97h55v-12h-67.5l.2,54.5.3,54.5h-43V1060h110V828h-13v220h-97v-43h55V785h55V675h42V916.5c0,132.8-.3,241.4-.7,241.4s-12.9-.1-27.6,0l-26.8.1.3,5.7.3,5.8,27.3.3,27.2.2v97H345v-55H278v13h55v42H70v-42H235v-13H58v68H1280V0H663Z" transform="translate(111.53 80.25)"/><rect class="cls-1" x="731.53" y="80.25" width="43" height="15"/><text class="cls-2" transform="translate(955.61 1121)">?</text><text class="cls-2" transform="translate(130.41 1297.77)">?</text><text class="cls-2" transform="translate(627.12 362.95)">?</text><text class="cls-2" transform="translate(847.63 476.9)">?</text></svg>