<?xml version="1.0" encoding="utf-8"?>
<!-- Generator: Adobe Illustrator 26.0.1, SVG Export Plug-In . SVG Version: 6.00 Build 0)  -->
<svg version="1.1" id="Layer_1" xmlns="http://www.w3.org/2000/svg" xmlns:xlink="http://www.w3.org/1999/xlink" x="0px" y="0px"
	 viewBox="0 0 1280 1280" style="enable-background:new 0 0 1280 1280;" xml:space="preserve">
<style type="text/css">
	.st0{fill:#037519;}
	.st1{fill:#FFFFFF;}
	.st2{font-family:'ArialMT';}
	.st3{font-size:62.44px;}
	.st4{fill:#FF0000;}
	.st5{stroke:#FFFFFF;stroke-miterlimit:10;}
</style>
<path class="st0" d="M0,640v640h15V730h43v110h220v165h12V773l-27.2-0.2l-27.3-0.3l-0.3-76.3L235,620h98v98h-43v-55h-12v67h55v275
	h12V608H168v12h55v98h-55v12h55v55h55v43l-103.7-0.2l-103.8-0.2l-0.3-54.7L70,718.1l-27.3-0.2l-27.2-0.3l-0.3-131.3L15,455.1h538v98
	h-43v-55h-12v342h122v-122h-67v67h12v-55h43l-0.2,48.7l-0.3,48.8l-48.7,0.3l-48.8,0.2v-263h55v-122H290v-98h153v43H333v12h275v165
	h122v-177h-12l-0.2,82.2l-0.3,82.3l-48.7,0.3l-48.8,0.2v-165H455v-55h-55v-55h-12v55h-98v-55h-12v55h-55v67h12v-55h43v98h-98v-55
	h-12v55H15l0.2-213.8l0.3-213.7l76.2-0.3l76.3-0.2v43H58v287h12l0.2-137.3l0.3-137.2l54.8-0.3l54.7-0.2v-55h263v110h122v-12H455v-98
	h43v55h12v-55l21.3,0.2l21.2,0.3l0.3,27.2l0.2,27.3h12v-55l21.3,0.2l21.2,0.3l0.3,76.2l0.2,76.3H400v-110H223v12h165v98H125v-43h220
	v-12H113v275H58v12h67v-55h55v-67h-12v55h-43v-98h98v55h12v-55h98v55h12v-55h98v55h55v55h165v165h12v-165h110v-12h-55v-43h98v110
	l27.3,0.2l27.2,0.3v152l-27.2,0.3l-27.3,0.2v12h67v-342H663v55H553v12h122v-55l103.8,0.2l103.7,0.3v152l-21.2,0.3l-21.3,0.2v-110
	H718v55H510v-55h-55v-55H125v-43h373v55h12v-55h98v43h-55v12h67V0.1H0V640z"/>
<path class="st0" d="M663,7.6v7.5l54.8,0.2l54.7,0.3l0.3,54.7l0.2,54.8h12v-110l48.8,0.2l48.7,0.3l0.3,48.7l0.2,48.8h-43v-55h-12v67
	h67v-110h372v208l-82,0.2l-82,0.3v506l33.5,0.3l33.5,0.2v-12h-55v-98h110v-12h-55v-208h55v-12h-55v-98h55v-12l-33.5,0.2l-33.5,0.3
	l-0.3,164.5l-0.2,164.5l-21.2,0.3l-21.3,0.2v-373h152v98h-55v12h55v98h-55v122h13v-110h42v208h-109.5l0.1,5.7l0.2,5.8l27.1,0.3
	l27.1,0.2v98h-152V222.9l-6,0.3l-6,0.3l-0.3,82l-0.2,82l-21.2,0.3L1005,388V180h220V58l-61.1,0.2l-61.1,0.3l-0.2,5.7l-0.1,5.8
	l27.5,0.2l27.5,0.3v42l-48.7,0.3L1060,113V58H938v110H730V58h-67v12l27.3,0.2l27.2,0.3l0.3,48.7L718,168h-43v-55h-12v67l137.3,0.2
	l137.2,0.3l0.3,192.2L938,565h67V443h-12l-0.2,54.7l-0.3,54.8l-21.2,0.3L950,553V70l48.8,0.2l48.7,0.3V125H1170V70h42v98h-207v-55
	h-12v287l27.3,0.2l27.2,0.3v262l-21.2,0.3L1005,663v-55H785v-98h55v-67h-55v-55h-12v67h55v43h-55l-0.2,54.7l-0.3,54.8l-109.7,0.3
	L553,608v67h110l-0.2,103.8l-0.3,103.8l-103.7,0.2L455,883V498H278v12h165l-0.2,241.2l-0.3,241.3h-42l-0.3-219.7L400,553H113v110
	l-21.2-0.2l-21.3-0.3l-0.3-76.3L70,510h165v-12H58v177h55v110h67v-12l-27.2-0.2l-27.3-0.3l-0.3-48.8L125,675h55v-12h-55v-98h263
	l-0.2,241.2l-0.3,241.3h-152l-0.3-82.3L235,883H58v287h12V895h153l-0.2,48.7l-0.3,48.8l-27.2,0.3L168,993v122h67v-12l-26-0.1
	c-14.3-0.1-26.6-0.2-27.2-0.3c-1-0.1-1.4-10.7-1.6-48.9L180,1005h43v55h55l-0.2,48.7l-0.3,48.8h-152l-0.3-103.8L125,950h55v-12h-67
	v232h275v55h12v-55h98v42h-55v13h67v-67l-108.5-0.1c-59.7-0.1-109.1-0.2-109.7-0.3c-1-0.1-1.4-10.7-1.6-48.9L290,1060h275v-12
	l-81-0.1c-44.5-0.1-81.6-0.2-82.2-0.3c-1-0.1-1.4-5.2-1.6-21.3L400,1005h165v-67h-67v12h55l-0.2,21.3l-0.3,21.2l-48.7,0.3L455,993
	v-98h153l-0.2,103.7c-0.2,82.2-0.6,103.8-1.5,103.9c-0.7,0.1-62.5,0.2-137.3,0.3l-136,0.1v12h220v110h12v-110h110v-67h-12l-0.2,27.3
	l-0.3,27.2h-42l-0.3-103.8L620,895h43v110h12V785h153v55h67v-12h-55v-55H675v-98h153l-0.2,21.2l-0.3,21.3l-54.7,0.3L718,718v12h165
	v55h55l-0.2,48.7l-0.3,48.8l-76.2,0.3L785,883v-55h-12v122h12v-55h165v-55l48.8,0.2l48.7,0.3l0.2,27l0.2,27l6,0.3l6.1,0.3V840
	l21.3,0.2l21.2,0.3v97l-48.7,0.3L1005,938v-55h-12l-0.2,27.2l-0.3,27.3l-82.2,0.3L828,938l-0.2,27.3l-0.3,27.2l-48.7,0.3L730,993
	V828h-12l-0.2,164.7c-0.2,131-0.6,164.8-1.5,164.9c-0.7,0.1-25.4,0.2-54.8,0.3L608,1158v67h452v-177h-67v12h55.1l-0.3,48.7
	l-0.3,48.8h-262l-0.3-21.3L785,1115h110v-12l-53.5-0.1c-29.4-0.1-54.1-0.2-54.7-0.3c-1-0.1-1.4-5.2-1.6-21.4L785,1060h110v-12H773
	v122h274.9v42H620v-42h110v-165h110v-55h275V828H950v-55h-55v-55h-55v-55H565v-43h428v55l27.3,0.2l27.2,0.3v97l-21.2,0.3L1005,773
	v-55h-55v-55h-67v12h55v55h55v55l82.3,0.2l82.2,0.3v207l-137.2,0.3L883,993v12h55v110h67v-12h-55v-98h153v219.5l61,0.3l61.1,0.2
	l-0.3-6.2l-0.3-6.3l-27.2-0.3l-27.3-0.2v-97h55v-12h-67.5l0.2,54.5l0.3,54.5h-43v-152h110V828h-13v220h-97v-43h55V785h55V675h42
	v241.5c0,132.8-0.3,241.4-0.7,241.4s-12.9-0.1-27.6,0l-26.8,0.1l0.3,5.7l0.3,5.8l27.3,0.3l27.2,0.2v97H345v-55h-67v13h55v42H70v-42
	h165v-13H58v68h1222V0H663V7.6L663,7.6z"/>
<rect x="620" class="st0" width="43" height="15"/>
<text transform="matrix(1 0 0 1 1007.7866 765.0416)" class="st1 st2 st3">?</text>
<text transform="matrix(1 0 0 1 18.91 1217.5701)" class="st1 st2 st3">?</text>
<text transform="matrix(1 0 0 1 515.62 282.75)" class="st1 st2 st3">?</text>
<text transform="matrix(1 0 0 1 513.9852 66.9409)" class="st1 st2 st3">?</text>
<text transform="matrix(1 0 0 1 405.0247 603.0778)" class="st1 st2 st3">?</text>
<rect x="15" y="1266.3" class="st4" width="43" height="13.7"/>
<circle class="st5" cx="1135.1" cy="588.6" r="14.5"/>
</svg>
