<?xml version="1.0" encoding="utf-8"?>
<!-- Generator: Adobe Illustrator 26.0.1, SVG Export Plug-In . SVG Version: 6.00 Build 0)  -->
<svg version="1.1" id="Layer_1" xmlns="http://www.w3.org/2000/svg" xmlns:xlink="http://www.w3.org/1999/xlink" x="0px" y="0px"
	 viewBox="0 0 8025.7 7951.3" style="enable-background:new 0 0 8025.7 7951.3;" xml:space="preserve">
<style type="text/css">
	.st0{fill:#037519;}
	.st1{fill:#FFFFFF;}
	.st2{font-family:'ArialMT';}
	.st3{font-size:229.775px;}
</style>
<path class="st0" d="M1.6,3975.7v3975.7h7854.8v-57.2h-677v-171.5H7123v171.5h-282.1v-457.3h338.5v-400.1H7123v342.9H6108l-1.9,83.8
	l-1.9,84.5l-86.5,1.9l-86.5,1.9l1.9,26.7l1.9,26.7l114.7,1.9l114.1,1.3v-171.5h282.1v171.5h56.4v-171.5h282.1v457.3l-565.4-1.3
	l-566.1-1.9v-965.3h451.4v108l-170.5,1.9l-171.1,1.3v743.1h909v-228.6h-56.4v171.5h-282.1v-171.5h-55.8l-1.9,83.8l-1.9,84.5
	l-223.8,1.9l-224.4,1.3v-285.2l83.4-1.9l82.7-1.9l1.9-27.3l1.9-26.7h-169.9v-285.8h105.9l1.9,83.8l1.9,84.5h56.4l1.9-84.5l1.9-83.8
	h168.6v-228.6h-570.5v342.9h-169.3v57.2h169.3v285.8h-169.3v57.2h169.3v285.8H5142v-171.5h-56.4v171.5h-282.1v-171.5h-56.4v171.5
	H4465v-171.5h-56.4v171.5h-282.1v-457.3h959.1v114.3h-846.3v228.6h56.4v-171.5h282.1v171.5h56.4v-171.5h282.1v171.5h56.4v-171.5
	H5142v-685.9h169.3v-57.2h-733.4v228.6h56.4v-171.5h451.4v457.3H4070.1v514.4h-959.1v-285.8h338.5v-57.2h-394.9v342.9h-451.4v-285.8
	h169.3v-228.6H2716v171.5h-282.1v-342.9h-232.6l1.9,26.7l1.9,27.3l86.5,1.9l85.9,1.9v285.2h-176.2l1.9,26.7l1.9,27.3l171.1,1.9
	l170.5,1.3v285.8H1412.1v-171.5h-56.4v171.5h-282.1v-171.5H904.3v-514.4h-56.4v571.6h169.3v114.3H735.1v-800.2h169.3v-57.2H735.1
	v-514.4h-56.4v857.4H509.4v57.2h169.3v285.8H227.3v-171.5h-56.4v228.6h507.8v114.3H58v-457.3h282.1v171.5h225.7v-57.2H396.5v-285.8
	h169.3v-743.1H340.1v57.2h169.3v628.7H340.1v171.5H58v-457.3h169.3v-57.2H58v-800.2h282.1v171.5h225.7v-400.1h-56.4v342.9H396.5
	v-457.3h789.9v171.5h225.7v-56.5l-82.7-1.9l-83.4-1.9l-1.9-84.5l-1.9-83.8H396.5v-514.4h-56.4V5665H227.3v-628.7h282.1v514.4h902.7
	v-342.9h112.8V5665h-169.3v57.2h168.6l1.9,83.8l1.9,84.5l252,1.9l252,1.3l1.9,84.5l1.9,83.8h225.7l1.9-198.8l1.3-198.1h-63.3
	l0.6,169.6l0.6,170.2l-53.3,1.9l-53.9,1.9v-457.9h282.1l-1.3,312.5l-1.9,313.1H1923v-165.1l-423.1-3.2l-423.1-3.2l-1.9-84.5
	l-1.9-83.8h-225v57.2h169.3V6751h56.4V6408h112.8v457.3H904.3v-857.4H735.1v-171.5h-56.4v514.4H227.3v-171.5h-56.4V6751h169.3v285.8
	H170.9v228.6h56.4v-171.5h169.3v-400.1H227.3V6408h507.8v-342.9h112.8v857.4h338.5v342.9h394.9v-571.6h-56.4v514.4h-282.1V6408H2202
	l1.3,169.6l1.9,170.2l453.2,1.9l452.6,1.3v-228.6h-56.4v171.5h-451.4V6408h169.3v-57.2h-169.3v-800.2h620.6l-1.3,141.6l-1.9,141
	l-82.7,1.9l-83.4,1.9v56.5h225.7v-400.1h-733.4l-1.3,598.3l-1.9,598.9l-139.2,1.9l-139.8,1.3v-342.9H1073.6v-285.8h789.9v114.3h-677
	v57.2h1191.1v342.9h56.4V5379.2h846.3V5322h-846.3v-628.7h451.4l-1.3,141l-1.9,141.6l-82.7,1.9l-83.4,1.9v56.5l111.6-1.3l111-1.9
	l1.9-170.2l1.3-169.6h282.1v342.9h56.4l-1.3-373.4l-1.9-372.8h-1072l-1.3,85.7l-0.6,85.7l-168.6,1.3l-168,1.9v54h1241.2v-54h-843.2
	v-114.3h959.1l-1.3,141l-1.9,141.6l-421.3,1.9l-421.9,1.3l-1.3,255.9l-1.9,255.3l-86.5,1.9l-86.5,1.9l1.9,26.7l1.9,26.7l86.5,1.9
	l85.9,1.9l-1.3,141l-1.9,141H1923v-511.2h-59.6l1.3,283.9l1.9,284.5l83.4,1.9l82.7,1.9v285.2l-223.8-1.3l-224.4-1.9l-1.9-313.1
	l-1.3-312.5h112.8l1.3,255.3l1.9,255.9h224.4l0.6-26.7l0.6-26.7l-84.6-1.9l-84.6-1.9l-1.9-255.3l-1.3-255.3l-83.4-1.9l-82.7-1.9
	l-1.9-342.9l-1.3-342.9l-196.2,1.3l-195.6,1.3v226.1l27,1.9l26.3,1.9v-172.1h282.1v628.7l-139.2-1.3l-139.8-1.9l-1.9-83.8l-1.9-84.5
	H847.9v228.6h56.4v-171.5h281.5l1.9,84.5l1.9,83.8l83.4,1.9l82.7,1.9v285.2H565.8v-685.9h-56.4v171.5H227.3v-171.5h-56.4v914.5
	h169.3v285.8H58v-114.3h169.3v-57.2H58V4693.3h282.1v171.5h56.4v-228.6l-167.4-1.3l-168-1.9l-1.9-55.9l-1.9-55.3h452v171.5h56.4
	v-171.5h112.8v857.4h564.2v-56.5l-82.7-1.9l-83.4-1.9l-1.9-84.5l-1.9-83.8h-55.8V5322H735.1v-457.3h169.3v-56.5l-82.7-1.9l-83.4-1.9
	l-1.9-141.6l-1.3-141h112.8v171.5h56.4v-406.5H396.5v-342.9l-111,1.3l-111.6,1.9v57.2l83.4,1.9l82.7,1.9v278.2l-82.7,1.9L174,4290
	l-1.9,29.8l-1.9,30.5h677.7v114.3l-393.1-1.3l-393.7-1.9l-1.9-141.6l-1.3-141h169.3v-63.5H58v-279.4h451.4l1.3,169.6l1.9,170.2
	l252.6,1.9l252,1.3v685.9H1355l1.9,83.8l1.9,84.5l27,1.9l26.3,1.9v-400.7h-56.4v171.5l-139.2-1.3l-139.8-1.9l-1.9-227.4l-1.3-226.7
	h620.6l1.3,341l1.9,341.7l27,1.9l26.3,1.9v-172.1h282.1l1.3,255.3l1.9,255.9h225.7l1.9-27.3l1.9-26.7h-169.9v-285.2l83.4-1.9
	l82.7-1.9l1.9-113l1.3-112.4h-63.3l1.3,83.8l0.6,84.5l-53.9,1.9l-53.9,1.9v-172.1l-170.5-1.3l-171.1-1.9l-1.9-55.3l-1.9-55.9
	l255.8-1.3l255.8-1.9l1.9-26.7l1.9-27.3l-255.8-1.3l-255.8-1.9l-1.9-141l-1.3-141.6l170.5-1.3l171.1-1.9l1.9-255.3l1.3-255.9
	l168-1.3l167.4-1.9l3.1-172.7l3.1-173.4l222.5,1.9l222.5,1.3l1.9,87.6l1.9,87l364.8-1.3l364.8-1.9v-57.2l-82.7-1.9l-83.4-1.9v-170.8
	h-169.3v-285.8h169.3v-171.5h282.1v342.9h56.4v-342.9h451.4V3258h-169.3v57.2h225.7v-400.1H3393v171.5h-282.1v-171.5h-56.4v228
	l83.4,1.9l82.7,1.9l1.9,141l1.3,141.6h-112.2l-1.9-84.5l-1.9-83.8l-252-1.9l-252.6-1.3v-285.8H2773l-1.9-27.3l-1.9-26.7l-252-1.9
	l-252.6-1.3v-285.8h1015.5v-57.2h-338.5v-285.8h338.5v-171.5h282.1v342.9h56.4v-342.9H3788v-57.2h-564.2v171.5h-451.4v-285.8h169.3
	v-57.2h-169.3v-285.8h451.4v171.5h56.4v-228.6H2716v857.4h-796.8l1.9-55.9l1.9-55.3l340.4-1.9l339.8-1.3v-57.2l-368,1.3l-368.6,1.9
	l-1.9,283.9l-1.3,284.5H2096l-1.9-27.3l-1.9-26.7l-86.5-1.9l-85.9-1.9l1.3-141l1.9-141l425-1.9l424.4-1.3v-172.1l55.2,1.9l54.5,1.9
	l1.9,141l1.3,141.6l-424.4,1.3l-425,1.9l-1.9,26.7l-1.9,26.7l85.3,1.9l85.3,1.9l1.3,141.6l1.3,141h-454.5v-343.6l-26.3,1.9l-27,1.9
	l-1.9,169.6l-1.3,170.2l-168,1.3l-167.4,1.9l-1.9,83.8l-1.9,83.8l-82.7,1.9l-82.7,1.9l-1.9,26.7l-1.9,27.3h169.9v628.7h-112.8V3258
	h-169.3l1.3-141.6l1.9-141l83.4-1.9l82.7-1.9v-56.5H734.4l1.9-55.9l1.9-55.3l337.3-1.9l336.6-1.3V2400l-26.3,1.9l-27,1.9l-1.9,169.6
	l-1.3,170.2H509.4v57.2h169.3V3258H396.5v-171.5h-56.4v228.6h394.9l1.3-170.2l1.9-169.6l139.8-1.9l139.2-1.3v342.9h169.3v114.3
	h-169.9l1.9,29.2l1.9,28.6h163l3.1,344.2l3.1,344.2h730.9l-0.6-255.3v-255.9l163-0.6c89.6-0.6,166.7-1.3,171.1-1.9
	c4.4-0.6,7.5-10.8,7.5-29.2v-28.6l-255.1-1.9l-255.8-1.3v-343.6l-26.3,1.9l-27,1.9l-1.9,341l-1.3,341.7l-168,1.3l-167.4,1.9v57.2
	l196.2,1.9l195.6,1.3v-342.9h112.8v450.9h-620.6v-279.4h338.5v-63.5h-169.3l1.3-398.8l1.9-398.2h1128.4l1.9,141l1.3,141.6
	l-255.1,1.3l-255.8,1.9l-1.9,26.7l-1.9,27.3l509.7,1.3l509.7,1.9l3.1,85.7l3.1,85.7h332.2l1.9,55.3l1.9,55.9h-451.4l-1.9-84.5
	l-1.9-83.8l-509.7-1.9l-509-1.3l1.3-141.6l1.9-141l255.8-1.9l255.8-1.3l-1.9-27.3l-1.9-26.7h-902.7v571.6l25.1,0.6l25.1,0.6
	l3.1-257.8l3.1-257.8l139.2-1.9l139.8-1.3l1.3,171.5l1.9,171.5l253.9,1.9l253.9,1.3l1.9,141l1.3,141.6l-170.5,1.3l-171.1,1.9
	l-1.9,255.3l-1.3,255.9h-959.1v-686.5l-26.3,1.9l-27,1.9l-1.9,255.3l-1.3,255.9H565.8v-279.4h169.3v-235.6l-26.3,1.9l-27,1.9
	l-1.9,83.8l-1.9,84.5H396.5v-172.1l-26.3,1.9l-27,1.9l-1.9,83.8l-1.9,84.5H58v-971.7h112.8l1.3,430l1.9,430.6h50.2l3.1-85.7
	l3.1-85.7h275.8l3.1,85.7l3.1,85.7l26.3,1.9l26.3,1.9l1.9-87.6l1.9-87.6l139.2-1.9l139.8-1.9v457.3l-82.7,1.9l-83.4,1.9v57.2
	l111.6,1.9l111,1.3v-920.9h-56.4v342.9H227.3v-685.9H58v-285.8h112.8v171.5h169.3v342.9h169.3v171.5h56.4v-228.6H396.5v-285.8h846.3
	v-400.1h-56.4v342.9H227.3v-114.3h677v-228.6H565.8v-114.3h451.4v342.9h56.4l1.3-170.2l1.9-169.6l82.7-1.9l83.4-1.9l1.3-426.8
	l1.9-426.8l55.2-1.9l54.5-1.9v1029.5h225.7v-57.2h-169.9l1.9-55.9l1.9-55.3l139.8-1.9l139.2-1.3V2400l-82.7,1.9l-83.4,1.9
	l-1.9,198.1l-1.3,198.8h56.4l1.3-170.2l1.9-169.6l82.7-1.9l83.4-1.9l1.3-169.6l1.9-169.6l425-1.9l424.4-1.3v-57.2h-169.3v-514.4
	h-169.3v-285.8h169.3v-228.6h-56.4v171.5h-282.1v-172.1l-29.5,1.9l-30.1,1.9l-1.9,83.8l-1.9,84.5h-112.2l1.3-141.6l1.9-141h280.2
	l-0.6,83.8l-1.3,84.5h63.3V914.5l139.8,1.3l139.2,1.9l1.9,226.7l1.3,227.4h-169.3v56.5l82.7,1.9l83.4,1.9l1.9,255.3l1.3,255.9h56.4
	v-685.9H2716v171.5h677v457.3h-282.1v-171.5h-225.7v57.2h169.3v285.8h-169.3v57.2h225.7v-171.5h789.9v285.8h-169.3v342.9h-282.1
	v-342.9H3393v171.5h-338.5v57.2l168,1.3l167.4,1.9l1.9,141l1.3,141.6H2377.5v57.2l252.6,1.3l252,1.9l1.9,141l1.3,141.6H2716v57.2
	h225.7v-342.9l139.8,1.3l139.2,1.9l1.9,83.8l1.9,84.5h55.8v-171.5h1466.9v171.5h564.2v-57.2h-338.5l1.3-141.6l1.9-141l82.7-1.9
	l82.7-1.9l1.9-83.8l1.9-83.8l139.8-1.9l139.2-1.3v171.5h56.4v-228.6h-394.9v171.5h-338.5v57.2h169.3v285.8h-112.8v-171.5h-169.3
	v-342.9h-507.8v-171.5h-56.4v171.5h-169.3v57.2h677v285.8H3449.4v-114.3H4465v-57.2h-677v-285.8h169.3v-171.5h282.1v171.5h564.2
	v-57.2h-507.8v-285.8h338.5v-57.2h-394.9v171.5h-282.1v-171.5h-507.8v-285.8h169.3v-57.2h-169.3v-285.8h451.4v342.9h56.4v-171.5
	h282.1v171.5H4465v-57.2h-169.3v-285.8h451.4v342.9H5142v-57.2h-338.5v-285.8h169.3v-57.2h-338.5V914.5H5142V514.4h-56.4v342.9
	h-282.1V685.9h-56.4v171.5h-677v57.2h507.8v285.8h-338.5v171.5h-282.1v-171.5H3788V857.4H3393v57.2h338.5v285.8H3393v171.5h-620.6
	v-171.5h-169.3V914.5h451.4V1086h56.4V400.1h112.8v800.2h-282.1v-171.5H2716v57.2h169.3v171.5h394.9V1086h338.5v-57.2h-338.5V743.1
	h620.6V1086h169.3v171.5h56.4V1086H4465v-57.2h-507.8V743.1h677V571.6h169.3v-57.2h-169.3V400.1h282.1v342.9h56.4V342.9h-394.9
	v342.9H4465V228.6h620.6v171.5h56.4V171.5h-1072v57.2h338.5v457.3H3280.2V400.1h338.5v-57.2h-564.2v514.4H1863.4v400.1h168
	c92.8,0,169.9,1.3,171.1,2.5s1.9,66,0.6,142.9l-1.9,139.7l-82.7,1.9l-82.7,1.9L2034,1716l-1.3,170.2h-507.8v57.2h570.5v-342.9
	l139.8,1.3l139.2,1.9l1.9,226.7l1.3,227.4h-112.8l-1.3-170.2l-1.9-169.6h-56.4l-1.9,169.6l-1.3,170.2h-789.9l1.3-141.6l1.9-141
	l253.9-1.9l253.9-1.3l-0.6-27.3l-0.6-26.7l-85.9-1.9l-85.3-1.9v-171.5l-26.3,1.9l-27,1.9l-1.9,83.8l-1.9,84.5h-281.5l1.3-227.4
	l1.9-226.7l83.4-1.9l82.7-1.9v-56.5h-394.9v857.4h-677v228.6h338.5v114.3H396.5v-171.5h-56.4v171.5H58v-800.2h169.3v-57.2H58v-114.3
	h282.1v285.8H170.9v571.6h56.4v-514.4h112.8v342.9h56.4v-171.5h677v-57.2H735.1v-171.5h-56.4v171.5H396.5v-457.3h282.1v114.3H509.4
	v228.6h56.4v-171.5h282.1v171.5h56.4v-228.6H735.1v-285.8h169.3v-57.2H678.6v171.5H58V914.5h282.1V1086h56.4V857.4H58V0H1.6V3975.7z
	"/>
<path class="st0" d="M170.9,371.5v371.5h225.7v-57.2H227.3V400.1h169.3v-57.2H227.3V57.2h620.6v114.3H340.1v57.2h169.3v285.8H340.1
	v57.2h169.3v628.7H227.3v-171.5h-56.4v228.6h394.9V1086h451.4v285.8H847.9v57.2h169.3v342.9h56.4V1086h620.6v285.8h-169.3v228.6
	h55.8l1.9-84.5l1.9-83.8l139.8-1.9l139.2-1.3v171.5h59.6v-168.3l86.5-1.9l86.5-1.9l-1.9-26.7l-1.9-26.7l-170.5-1.9l-171.1-1.3
	v-342.9h-169.3V685.9h-56.4v342.9h-282.1V342.9h-56.4v685.9H565.8V228.6h282.1v514.4h56.4V57.2h620.6v342.9h56.4V228.6h282.1v171.5
	h231.9v-56.5l-85.9-1.9l-86.5-1.9l-1.9-84.5l-1.9-83.8h-337.9V57.2h965.4v342.9h225.7v-57.2h-169.3V57.2h620.6v114.3H2716v57.2
	h169.3v285.8h-451.4V171.5h-401.2v57.2H2202v285.8h-338.5v57.2H2202v114.3h-451.4V342.9h-56.4v171.5h-282.1V171.5h-394.9v685.9
	H735.1V342.9h-56.4v571.6h394.9V228.6h282.1v685.9h56.4V571.6h282.1v342.9h55.8l1.9-84.5l1.9-83.8l509.7-1.9l509-1.3v-57.2h-507.8
	V228.6h112.8v342.9h507.8v171.5h56.4V228.6h338.5V57.2h620.6v342.9h338.5v114.3H3788V171.5H3393v57.2h338.5v285.8H3393v57.2h902.7
	V342.9h-338.5V57.2h1297.6v971.7h-507.8v57.2h338.5v285.8h-169.3v57.2h338.5v285.8h-620.6v-342.9h-225.7v57.2h169.3v285.8h-451.4
	v-171.5h-56.4v171.5H3788v-342.9h-225.7v57.2h169.3v285.8h-169.3v57.2h507.8v171.5h56.4v-171.5h620.6v285.8h-338.5v57.2h507.8v285.8
	h-169.3v57.2h225l1.9-84.5l1.9-83.8l309.1-1.9l308.4-1.3v171.5h59.6l-1.3-112.4l-1.3-113l-339.1-1.9l-338.5-1.3v-171.5h-169.3
	v-285.8h451.4v171.5h56.4v-571.6H5142V1086h169.3V743.1h620.6v285.8h-338.5v57.2h169.3v285.8h-169.3v571.6h59.6v-511.2l86.5-1.9
	l86.5-1.9l-0.6-169.6l-0.6-169.6l84.6-1.9l85.3-1.9V399.5l55.2,1.9l54.5,1.9v1025.7h228.8V743.1h451.4v285.8h-169.3v57.2H7123v457.3
	h-282.1v-171.5h-225.7v228.6h56.4v-172.1l55.2,1.9l54.5,1.9l1.9,141l1.3,141.6h-169.3v685.9h-281.5l-1.9-84.5l-1.9-83.8l-26.3-1.9
	l-27-1.9v229.3l168,1.3l167.4,1.9l1.9,226.7l1.3,227.4h-281.5l-1.9-84.5l-1.9-83.8l-167.4-1.9l-168-1.3v-800.2h169.3v-171.5h169.9
	l-1.9-27.3l-1.9-26.7h-223.8l0.6,83.8l1.3,84.5h-282.7V1608c0-2.5,24.4-4.4,53.9-4.4h53.9l-0.6,83.8l-1.3,84.5h63.3v-171.5
	l224.4,1.3l223.8,1.9l1.9,141l1.3,141.6h-169.3v170.8l-84.6,1.9l-84.6,1.9l-1.9,283.9l-1.3,284.5l169.3,1.3l169.3,1.9l1.9,83.8
	l1.9,84.5h55.8l-1.3-113l-1.9-112.4l-167.4-1.9l-168-1.3v-457.3l139.8,1.3l139.2,1.9l1.9,83.8l1.9,84.5h55.8l-1.3-113l-1.9-112.4
	l-82.7-1.9l-83.4-1.9v-113.7h169.3v-685.9h451.4v171.5h56.4v-228.6h-507.8V914.5h169.3v-57.2h-225.7v685.9h-451.4l-1.3-170.2
	l-1.9-169.6H5935l-1.9,169.6l-1.3,170.2h-169.3v514.4h-282.1l1.3-398.8l1.9-398.2l82.1-1.9l82.7-1.9l2.5-25.4
	c1.3-14,1.3-26.7-0.6-28.6c-1.9-1.9-40.1-2.5-86.5-2.5h-83.4l1.3-141.6l1.9-141l171.1-1.9l171.1-1.3l-1.9-27.3l-1.9-26.7l-198.7-1.9
	l-199.3-1.3v342.9h-169.3v57.2h169.3v800.2H5142v-171.5h-225.7v57.2h169.3v171.5h677v514.4h62.7v-341.7l-0.6-341h107.2l1.9,398.8
	l1.3,398.2h-285.9l1.3-84.5l0.6-83.8h-54.5l-1.9,83.8l-1.9,84.5h-281.5v-172.1l-26.3,1.9l-27,1.9l-1.9,83.8l-1.9,84.5h-168.6v57.2
	h338.5v285.2l-82.7,1.9l-83.4,1.9l-1.9,169.6l-1.3,170.2h-507.8l1.3,287.1l1.9,287.7l83.4,1.9l82.7,1.9v278.2l-82.7,1.9l-83.4,1.9
	v57.2l111.6,1.9l111,1.3v-342.9h338.5v-63.5h-338.5v-279.4h451.4v108l-167.4,1.3l-168,1.9v57.2l168,1.9l167.4,1.3v279.4l-167.4,1.3
	l-168,1.9l-3.1,172.7l-3.1,173.4l-222.5-1.9l-222.5-1.3l-1.9-141.6l-1.3-141h169.3v-63.5h-169.3l1.3-398.8l1.9-398.2l168-1.9
	l167.4-1.3V3258h-339.1l1.9-55.9l1.9-55.3l224.4-1.9l223.8-1.3v171.5h56.4v-228.6h-507.8v-171.5h-225.7v57.2h169.3v1314l-82.7,1.9
	l-83.4,1.9v57.2l83.4,1.9l83.4,1.9l-1.9,55.3l-1.9,55.3h-275.8l-3.1-85.7l-3.1-85.7h-50.2l-1.9,115.6l-1.3,116.2H5142v-342.9
	l425-1.3l424.4-1.9v-57.2l-255.8-1.9l-255.1-1.3l1.3-313.1l1.9-312.5l507.8-1.3l507.8-1.9v-396.9l-26.3-1.9l-27-1.9v343.6h-282.1
	l-1.3-255.9l-1.9-255.3h-564.2l-1.9,26.7l-1.9,27.3h169.9v171.5h63.3l-1.3-84.5l-0.6-83.8h280.2l1.9,226.7l1.3,227.4h-626.9v-172.1
	l-26.3,1.9l-27,1.9l-1.9,169.6l-1.3,170.2l-252.6,1.3l-252,1.9l-1.9,169.6l-1.3,170.2h-112.8l1.3-227.4l1.9-226.7h501.5l3.1-171.5
	l3.1-171.5l139.8-1.9l139.2-1.3v171.5h401.2l-1.3-113l-1.9-112.4H5935V3258h-285.9l1.3-84.5l0.6-83.8l-85.3-1.9l-85.3-1.9l1.3-141
	l1.9-141h789.9l1.9,255.3l1.3,255.9h56.4v-342.9h1015.5v-743.1h-56.4v685.9h-282.1v-342.9h-56.4v342.9h-282.1v-457.9l55.2,1.9
	l54.5,1.9l1.9,169.6l1.3,170.2h56.4v-342.9l139.8,1.3l139.2,1.9l1.9,169.6l1.3,170.2h56.4v-685.9h282.1v857.4h56.4v-914.5h-564.2
	v57.2H7123v285.8h-451.4v-629.4l55.2,1.9l54.5,1.9l1.9,255.3l1.3,255.9h225.7v-57.2h-169.3v-285.8h169.3v-57.2h-169.3v-285.8h338.5
	V914.5h451.4v285.8h-169.3v57.2h225.7V857.4h-507.8V685.9H7123v342.9h-282.1V685.9h-169.3V400.1h677v-57.2h-733.4v342.9h-282.1
	V342.9h-56.4v1028.8h-112.8V342.9h-570.5v57.2h338.5v285.8h-620.6V57.2h1303.9v114.3H5424.1v400.1h401.8l-1.9-27.3l-1.9-26.7
	l-170.5-1.9l-171.1-1.3V228.6h965.4v342.9h56.4V228.6h169.3V57.2h959.1v514.4h225.7v-57.2h-169.3V228.6h169.3v-57.2h-169.3V57.2
	h282.1v285.8H7800v57.2h169.3v285.8h-620.6V571.6h169.3V171.5h-733.4v57.2h677v285.8h-677v57.2h169.3v342.9h56.4V571.6h282.1v171.5
	H7800v628.7h-451.4V1086h169.3v-57.2h-225.7v685.9h-338.5v57.2H7123v171.5h56.4v-171.5h169.3v-342.9H7800v171.5h56.4V743.1h112.8
	v971.7h-282.1v-171.5h-225.7v342.9h-169.3v57.2h338.5v514.4H7800v171.5h56.4v-228.6h-169.3v-457.3H7800v342.9h56.4v-400.1h-338.5
	v-285.8h112.8v171.5h338.5v971.7h-282.1v-171.5h-56.4v514.4H6615.2v56.5l83.4,1.9l82.7,1.9l1.9,171.5l1.3,171.5l27-0.6l26.3-0.6
	l1.9-172.7l1.3-172.1l139.8,1.3l139.2,1.9l1.9,83.8l1.9,84.5l167.4,1.3l167.4,1.9l1.9,226.7l1.3,227.4h-112.8v-342.9h-338.5V3258
	h-56.4v231.8h335.4l1.9,141l1.3,141.6h-338.5v63.5H7123v343.6l27-1.9l26.3-1.9l1.9-170.2l1.3-169.6H7800v279.4h-338.5v63.5
	l196.2-1.3l195.6-1.9v-400.1l-167.4-1.9l-168-1.3v-457.3l139.8,1.3l139.2,1.9l1.9,83.8l1.9,84.5h55.8v-571.6H7800V3258h-620.6
	v-114.3h507.8v-342.9h282.1V3601h-282.1v-171.5h-56.4v235h338.5v621.8l-82.7,1.9l-83.4,1.9l-1.9,29.8l-1.9,30.5h169.9v457.3h-112.8
	v-342.3l-82.7-1.9l-83.4-1.9l-3.1-85.7l-3.1-85.7l-167.4-1.9l-168-1.3v-279.4l168-1.3l167.4-1.9v-57.2l-195.6-1.9l-196.2-1.3v342.9
	h-282.1l-1.3-170.2l-1.9-169.6l-82.7-1.9l-83.4-1.9v-278.8l168-1.3l167.4-1.9v-57.2l-195.6-1.9l-196.2-1.3v342.9h-169.3v63.5h338.5
	l-1.3,226.7l-1.9,227.4l-137.9,1.3l-137.9,1.3l-3.1-87l-3.1-87l-26.3-0.6l-27-1.3v233.7h394.9v-171.5h620.6v171.5H7800v285.8h-169.3
	v57.2h338.5V5322h-282.1v-171.5h-56.4V5322h-676.4l-1.9,83.8l-1.9,84.5l-167.4,1.9l-168,1.3v57.2h394.9v-171.5h282.1v342.9h338.5
	v285.8h-338.5v514.4h-282.1v-685.9h-677V5665h-55.8l-1.9,84.5l-1.9,83.8l-54.5,1.9l-55.2,1.9v-286.4h282.1v171.5h677V6408h56.4
	v-514.4h338.5v-57.2h-338.5v-342.9H7123V5665h-620.6v-285.8h338.5V5322h-169.3v-628.7h620.6l-1.3,141.6l-1.9,141l-167.4,1.9
	l-168,1.3v57.2h394.9v-514.4h112.8v628.7h-620.6v-285.8h338.5v-57.2h-394.9v400.1h733.4v-171.5H7800v171.5h56.4v-228.6h-338.5
	v-285.8h169.3v-57.2h-169.3v-171.5h-225l-1.9,83.8l-1.9,84.5l-55.2,1.9l-54.5,1.9v-85.1c0-46.4-1.3-86.4-2.5-87.6
	c-9.3-1.8-18.8-2-28.2-0.6l-25.1,2.5l-1.9,83.8l-1.9,83.2l-308.4,1.9l-309.1,1.3v-457.3h282.1V4351l27-1.9l26.3-1.9v-228.6
	l-167.4-1.9l-168-1.3v-278.8l83.4-1.9l82.7-1.9v-571.6l-26.3-1.9l-27-1.9V3601h-338.5v31.8c0,17.8,1.9,31.1,5,31.1s78.4-0.6,169.3,0
	l164.2,0.6v108l-424.4,1.3l-425,1.9v57.2l171.1,1.9l170.5,1.3v108h-457.6v-279.4l247.6-0.6c136-0.6,251.4-1.3,255.8-1.9
	c4.4-0.6,7.5-10.8,7.5-29.2v-28.6h-564.2v400.1h564.2l1.9-84.5l1.9-83.8h281.5v450.9l-79.6,0.6c-44.5,0.6-82.1,0.6-84.6,0
	c-2.5-0.6-5,13.3-5,31.1v31.8h169.3l-1.3,141l-1.9,141.6l-223.8,1.9l-223.8,1.3l-1.9-86.4l-1.9-87H5935v570.3H6330l1.9-26.7
	l1.9-27.3h-339.1v-285.8h620.6l-1.3,313.1l-1.9,312.5h-959.1l-1.9-55.3l-1.9-55.9l425-1.3l425-1.9l1.9-198.8l1.3-198.1h-398.1
	l0.6,26.7l0.6,27.3l170.5,1.9l169.9,1.3l-1.3,141.6l-1.9,141h-617.5l-1.9-398.8l-1.3-398.2H6108l-1.3,83.8l-0.6,84.5H6330V4464
	h-166.1v-284.5l83.4-1.9l82.7-1.9v-228.6l-26.3-1.9l-27-1.9v171.5l-85.3,1.9l-85.3,1.9l0.6,83.8l1.3,84.5l-425,1.3l-425,1.9
	l-1.9,173.4l-1.3,172.7l-562.9-1.3l-562.3-1.9l-1.9-227.4l-1.3-226.7H4465v-235.6l-26.3,1.9l-27,1.9l-1.9,83.8l-1.9,84.5h-281.5
	v-342.9h-56.4v171.5H3788v-279.4h112.2l1.9,83.8l1.9,84.5h50.2l1.9-84.5l1.9-83.8h281.5l1.3,169.6l1.9,170.2l27,1.9l26.3,1.9V3601
	h-508.4l1.9-55.9l1.9-55.3h614.3l3.1,171.5l3.1,171.5l27,1.9l26.3,1.9v-750h-56.4v342.9h-451.4v-285.8h169.3v-57.2h-225.7v342.9
	h-282.1v-342.9h-56.4V3258H3393v56.5l83.4,1.9l82.7,1.9l1.9,83.8l1.9,84.5l74.6,0.6c41.4,0.6,79,1.3,83.4,1.9
	c5.6,0.6,8.1,34.3,9.4,141.6l1.3,141.6H2773l-1.9-84.5l-1.9-83.8l-111-1.9l-111.6-1.3v342.9l-170.5,1.3l-171.1,1.9v228.6l594.3,1.9
	l593.7,1.3l-1.3,484.6l-1.9,483.9l-139.2,1.9l-139.8,1.3v-342.9h-56.4l-1.3,169.6l-1.9,170.2l-223.8,1.9l-224.4,1.3v-285.2l83.4-1.9
	l82.7-1.9l1.9-27.3l1.9-26.7h-226.3v400.1H3393v800.2h-451.4v-285.8h169.3V5665H2716v57.2h169.3v342.9h564.2V5036.3h282.1v342.9
	h56.4v-743.1h-56.4v342.9h-282.1V4008l83.4-1.9l82.7-1.9v-57.2l-111-1.9l-111.6-1.3v171.5H2264.6v-108l506.5-1.3l505.9-1.9v-57.2
	l-336.6-1.9l-337.3-1.3v-279.4H2716v171.5h1015.5v342.9h169.3v108h-281.5l-1.9-84.5l-1.9-83.8l-26.3-1.9l-27-1.9v750h56.4v-342.9
	H3788v-56.5l-82.7-1.9l-83.4-1.9l-1.9-55.9l-1.9-55.3h282.7v1143.2h-169.3v57.2h225.7v-685.9h112.8v171.5h169.3v514.4h169.3v342.9
	h394.9v-400.1h-56.4v342.9H4465V5322h-56.4v171.5h-112.8v-457.3H4465v-57.2h-338.5v-114.3h451.4v285.8h-169.3v57.2h169.3v514.4h56.4
	v-342.9h282.1v628.7h-620.6V5665h-169.3v-514.4h-56.4V5665h-451.4v-514.4h-56.4v571.6h169.3v171.5h56.4v-171.5h282.1v457.3h-169.3
	v57.2h169.3v285.8h-338.5v57.2h338.5v285.8h-169.3v57.2h169.3v342.9h225.7v-57.2h-169.3v-628.7h112.8v514.4h56.4v-571.6h-169.3
	v-800.2h112.8V6408h1241.2V5665h-394.9v228.6h56.4v-171.5h282.1v628.7H4295.7v-285.8h959.1v114.3h-846.3v57.2h902.7v-400.1h-56.4
	v171.5h-282.1v-457.3h507.8v-57.2l-252-1.3l-252.6-1.9l-1.9-83.8l-1.9-84.5l-167.4-1.3l-167.4-1.9l-1.9-227.4l-1.3-226.7h282.1
	v286.4l-54.5-1.9l-55.2-1.9l-1.9-84.5l-1.9-83.8h-55.8v228.6H5142v-56.5l-82.7-1.9l-83.4-1.9l-1.9-55.9l-1.9-55.3h282.7V5322h-169.3
	v57.2h394.9v-56.5l-82.7-1.9l-83.4-1.9l-1.9-227.4l-1.3-226.7h281.5l1.9,84.5l1.9,83.8h53.9l1.3-112.4l1.3-112.4l-84.6-1.9
	l-84.6-1.9l-1.9-141l-1.3-141l85.3-1.9l85.9-1.9V4464h-224.4l-1.9,171.5l-1.3,172.1h-169.3v171.5l-139.2-1.3l-139.8-1.9l-1.9-84.5
	l-1.9-83.8H3957.2l-1.3-344.9l-1.9-344.2l-82.7-1.9l-83.4-1.9v-107.3h282.1v685.9H5085l1.9,83.8l1.9,84.5l27,1.9l26.3,1.9v-172.1
	h169.3v-342.9h451.4v285.8h-169.9l1.9,26.7l1.9,27.3l83.4,1.9l82.7,1.9v456.6l-139.2-1.3l-139.8-1.9l-1.9-83.8l-1.9-84.5h-55.8
	l1.3,112.4l1.9,113l83.4,1.9l82.7,1.9v1314H4408.6v57.2l791.7-1.3l791.1-1.9l1.9-26.7l1.9-27.3l-171.1-1.3l-171.1-1.9l-1.9-141
	l-1.3-141.6l170.5-1.3l171.1-1.9l1.9-370.3l1.3-369.6h-62.7v341l0.6,341.7h-279.6L5651,5778l-1.3-398.8h112.8l1.3,341.7l1.9,341
	h56.4v-682.7h624.4l-1.9,55.3l-1.9,55.9l-169.3,1.9l-169.3,1.3l1.3,284.5l1.9,283.9h53.3l1.9-83.8l1.9-84.5h281.5V6408h56.4v-514.4
	h451.4v685.9h394.9v-514.4H7800v628.7h-282.1v-114.3h169.3v-57.2h-169.3v-285.8h112.8V6408h56.4v-228.6h-225.7v514.4h-169.3v171.5
	h-677v57.2h338.5v285.8h-620.6V6751h112.8v342.9h394.9v-57.2h-338.5V6751h677v-57.2h-338.5v-685.9h-225.7l-1.3,255.9l-1.9,255.3
	l-139.2,1.9l-139.8,1.3v-514.4h-56.4v571.6h394.9v-514.4h112.8l-1.3,312.5l-1.9,313.1l-308.4,1.9l-309.1,1.3v-514.4h-59.6v168.3
	l-170.5,1.9l-171.1,1.3v57.2h344.8l-1.3,141.6l-1.9,141l-847.5,1.9l-848.2,1.3v571.6h564.2v-57.2h-169.3v-114.3h169.3v-57.2h-225.7
	v171.5H4465V6751h959.1v285.8h-169.3v743.1h225.7v-57.2h-169.3v-285.8h169.3v-57.2h-169.3v-285.8h169.3V6751h796.1l-1.3,226.7
	l-1.9,227.4l-82.7,1.9l-83.4,1.9v56.5h902.7v-342.9h282.1v628.7h-338.5v228.6h56.4v-171.5h282.1v171.5h564.2v-571.6H7800v514.4
	h-451.4v-457.3h282.1v285.8h-112.8v-171.5h-56.4v228.6h225.7v-400.1h-338.5V6751h282.1v171.5h56.4V6751H7800v171.5h56.4v-914.5
	h-169.3v-285.8h169.3v-228.6h-394.9v57.2H7800V5665h-451.4v-285.8h620.6v457.3H7800v57.2h169.3v1143.2h-451.4v-171.5h-56.4v228.6
	h507.8v857.4h56.4V0H170.9V371.5z"/>
<path class="st0" d="M2716,6036.5v200.1h677v800.2H2095.4v-114.3h1184.8v-571.6h-394.9v171.5H2716v57.2h225.7V6408h282.1v457.3
	H2095.4v-342.9h-739.7v571.6h56.4v-514.4h282.1v800.2h-620.6v-342.9h-56.4v400.1h677v171.5h225.7v-56.5l-82.7-1.9l-83.4-1.9
	l-1.9-55.9l-1.9-55.3h169.9v-56.5l-82.7-1.9l-83.4-1.9l-1.9-141l-1.3-141.6h169.3v-56.5l-82.7-1.9l-83.4-1.9l-1.9-141.6l-1.3-141
	h83.4c46.4,0,85.3-1.3,86.5-2.5c1.8-9.4,2-19.1,0.6-28.6l-2.5-25.4l-82.7-1.9l-82.1-1.9l-1.9-55.9l-1.9-55.3h282.7v285.8h-169.3
	v57.2h169.3v285.8h-169.3v57.2h169.3v457.3h-451.4v-171.5h-564.2v57.2h169.3v171.5h56.4v-171.5h282.1v171.5h909v-57.2h-338.5v-285.8
	h169.3v-57.2h-169.3v-285.8h959.1v285.8h-112.8v-171.5h-394.9v228.6h56.4v-171.5h282.1v457.3H2716v57.2h225.7v-342.9h620.6v285.8
	h-338.5v57.2h394.9v-400.1h-507.8v-114.3h620.6v514.4h56.4v-571.6h-169.3v-171.5h-56.4v171.5h-451.4v-114.3h338.5v-171.5h282.1
	v171.5h169.3v685.9h56.4v-743.1H3788v-171.5h-338.5v-628.7h169.3v-171.5h112.8v285.8h-169.3V6751h394.9v-57.2h-338.5V6408h338.5
	v-57.2H3788v-285.8h169.3v-228.6h-56.4v171.5h-282.1v-171.5h-56.4v342.9h-789.9v-342.9H2716V6036.5z"/>
<rect x="37.5" y="0" class="st0" width="147.4" height="57.4"/>
<text transform="matrix(0.9871 0 0 1 391.7979 880.8672)" class="st1 st2 st3">?</text>
<text transform="matrix(0.9871 0 0 1 2765.3389 819.3892)" class="st1 st2 st3">?</text>
<text transform="matrix(0.9871 0 0 1 6829.5234 5390.25)" class="st1 st2 st3">?</text>
<text transform="matrix(0.9871 0 0 1 4290.2295 7370.2158)" class="st1 st2 st3">?</text>
<text transform="matrix(0.9871 0 0 1 1739.2036 2617.0776)" class="st1 st2 st3">?</text>
<text transform="matrix(0.9871 0 0 1 6496.8945 2060.856)" class="st1 st2 st3">?</text>
<text transform="matrix(0.9871 0 0 1 560.6753 6593.0508)" class="st1 st2 st3">?</text>
<text transform="matrix(0.9871 0 0 1 7856.4219 7951.3057)" class="st1 st2 st3">?</text>
</svg>
